<?xml version="1.0" standalone="no"?>
<!DOCTYPE svg PUBLIC "-//W3C//DTD SVG 20010904//EN"
 "http://www.w3.org/TR/2001/REC-SVG-20010904/DTD/svg10.dtd">
<svg version="1.0" xmlns="http://www.w3.org/2000/svg"
 width="360.000000pt" height="360.000000pt" viewBox="0 0 360.000000 360.000000"
 preserveAspectRatio="xMidYMid meet">
<metadata>
Created by potrace 1.11, written by Peter Selinger 2001-2013
</metadata>
<g transform="translate(0.000000,360.000000) scale(0.100000,-0.100000)"
fill="#000000" stroke="none">
<path d="M1314 3180 c-39 -11 -102 -31 -140 -44 -38 -14 -159 -50 -269 -81
-176 -49 -309 -94 -340 -115 -5 -4 -39 -23 -75 -42 -36 -20 -87 -49 -115 -66
-27 -17 -72 -43 -100 -58 -83 -45 -116 -70 -198 -151 -67 -67 -77 -82 -77
-113 0 -110 81 -422 157 -605 78 -187 233 -455 264 -455 24 0 150 164 196 255
14 28 82 135 152 239 195 291 206 308 234 359 15 27 45 73 67 102 22 30 40 58
40 63 0 5 7 15 15 22 8 7 25 32 37 57 12 24 25 46 29 48 3 2 14 -32 25 -75 11
-49 24 -80 32 -80 7 0 38 13 70 29 70 35 254 111 270 111 23 0 0 -27 -58 -69
-71 -52 -120 -112 -166 -206 -41 -83 -63 -225 -65 -408 -1 -106 2 -120 46
-262 25 -82 48 -159 51 -170 4 -16 -5 -25 -47 -44 -109 -52 -295 -214 -371
-325 -46 -67 -85 -171 -98 -261 -8 -51 -14 -63 -47 -91 -21 -18 -85 -58 -143
-90 -58 -31 -121 -67 -140 -80 -19 -12 -59 -27 -88 -33 -77 -16 -151 -68 -129
-90 8 -8 8 -11 -1 -11 -17 0 -15 -17 11 -71 12 -27 30 -50 42 -52 35 -9 655
-8 655 1 0 5 20 6 45 2 25 -4 45 -4 45 0 0 4 24 5 53 3 218 -13 330 -24 345
-32 23 -12 116 -15 165 -6 26 5 55 2 94 -10 50 -16 67 -17 152 -6 53 6 120 15
150 21 30 5 75 8 100 5 150 -12 775 3 909 21 23 3 48 2 55 -3 15 -12 133 -8
212 7 116 23 153 26 177 16 27 -12 50 36 55 113 6 88 1 92 -128 98 l-101 4
-48 49 c-42 45 -52 50 -91 51 -34 0 -39 2 -24 9 18 8 17 9 -7 9 -15 1 -29 -3
-32 -8 -6 -9 -66 -33 -66 -26 0 2 12 10 28 17 15 8 36 19 47 25 11 6 38 19 60
28 59 24 105 49 105 55 0 4 10 17 23 30 12 13 37 47 54 75 18 27 33 46 33 40
3 -31 54 131 60 188 5 45 13 72 24 80 21 16 37 186 31 352 -5 155 -36 260
-109 375 -55 85 -137 189 -155 195 -9 3 -41 27 -71 54 -32 29 -99 71 -167 106
-106 53 -118 61 -158 118 -78 110 -95 126 -193 181 -111 62 -137 71 -247 86
-90 12 -354 13 -458 1 -62 -6 -71 -5 -99 15 -32 24 -63 21 -95 -12 -8 -8 -17
-13 -19 -12 -2 2 3 31 11 63 8 33 14 77 15 98 0 46 -15 48 -98 13 -31 -13 -91
-34 -132 -46 -65 -19 -133 -42 -192 -65 -14 -6 -16 -2 -12 22 2 15 7 34 9 41
3 7 9 70 15 140 6 70 17 152 25 182 8 30 15 70 15 88 0 30 -2 32 -32 31 -18 0
-65 -9 -104 -19z m106 -40 c-7 -4 -9 -13 -5 -20 5 -9 4 -11 -4 -6 -9 6 -10 0
-6 -21 5 -21 4 -24 -4 -13 -6 8 -11 26 -11 40 0 20 -2 22 -10 10 -8 -13 -10
-12 -10 3 0 18 -11 20 -50 6 -22 -8 -21 -8 8 -4 17 2 32 0 32 -5 0 -6 -13 -10
-30 -10 -28 0 -30 -2 -30 -40 0 -36 -2 -40 -25 -40 -22 0 -25 -4 -25 -38 0
-28 -6 -41 -22 -51 -16 -10 -23 -10 -26 -2 -7 21 -19 11 -37 -29 -10 -22 -24
-40 -32 -40 -7 0 -13 -7 -13 -15 0 -9 -6 -18 -13 -21 -7 -2 -26 -31 -42 -64
-17 -33 -36 -60 -43 -60 -7 0 -15 -7 -18 -15 -3 -8 -14 -17 -25 -20 -10 -4
-19 -15 -19 -25 0 -9 -9 -20 -19 -23 -13 -3 -22 -17 -26 -41 -5 -26 -12 -36
-26 -36 -11 0 -18 -3 -18 -7 4 -19 -26 -70 -45 -79 -14 -6 -22 -20 -24 -41 -2
-18 -7 -33 -11 -33 -4 0 -16 -18 -26 -40 -10 -22 -24 -40 -32 -40 -7 0 -13
-11 -13 -24 0 -13 -7 -27 -16 -30 -10 -4 -13 -13 -9 -25 4 -13 -4 -30 -25 -52
-22 -25 -30 -43 -30 -71 0 -27 -4 -38 -15 -38 -11 0 -15 -11 -15 -40 l0 -39
58 -3 c56 -3 57 -3 55 -33 l-2 -29 19 32 c11 18 23 32 26 32 6 0 -11 -30 -40
-70 -6 -9 -23 -15 -38 -14 -23 2 -25 0 -15 -11 9 -9 14 -10 19 -1 9 13 10 3 2
-18 -5 -13 -9 -12 -27 4 -11 11 -23 17 -26 14 -3 -3 -1 -8 5 -12 14 -10 25
-42 15 -42 -5 0 -11 6 -14 13 -3 6 -4 2 -4 -10 1 -12 6 -19 12 -15 5 3 2 -5
-8 -18 -9 -14 -20 -31 -24 -39 -4 -8 -15 -23 -25 -33 -10 -10 -18 -27 -18 -39
0 -26 -58 -111 -71 -104 -5 4 -6 -2 -2 -11 4 -12 3 -15 -6 -10 -8 5 -11 3 -9
-6 2 -8 -13 -31 -32 -51 -36 -39 -67 -53 -34 -16 19 22 19 22 -2 11 -17 -9
-24 -7 -38 9 -9 11 -14 24 -11 30 4 5 2 8 -4 7 -5 -2 -26 22 -46 52 -29 44
-35 62 -31 89 5 31 4 32 -10 15 -14 -18 -15 -18 -9 4 4 12 3 21 -2 20 -4 -2
-9 2 -11 7 -2 6 -9 17 -17 25 -22 24 -96 203 -90 218 2 7 1 11 -4 7 -9 -5 -27
50 -23 68 1 4 -2 7 -7 7 -5 0 -12 17 -17 38 -4 20 -8 39 -9 42 -1 3 -9 30 -18
60 -22 72 -44 182 -52 252 l-6 56 83 84 c59 59 106 96 163 127 44 24 87 49 95
56 18 15 107 64 220 122 78 39 181 76 285 102 76 18 220 60 300 86 44 15 121
37 170 50 79 20 90 21 93 8 2 -9 -2 -19 -8 -23z m-43 -77 c-3 -10 -5 -4 -5 12
0 17 2 24 5 18 2 -7 2 -21 0 -30z m417 -300 c-4 -21 -10 -39 -15 -41 -4 -2 -5
-10 -2 -18 3 -8 1 -14 -5 -14 -6 0 -8 -8 -5 -18 4 -19 -5 -74 -28 -164 -8 -32
-18 -48 -28 -48 -14 0 -14 -2 -1 -10 21 -13 5 -23 -18 -11 -29 15 -49 -11 -34
-44 8 -18 8 -25 -1 -28 -6 -2 -11 -16 -9 -31 1 -18 -2 -26 -11 -23 -6 2 -11
14 -10 26 2 11 -2 21 -7 21 -6 0 -10 -4 -10 -10 0 -5 -8 -10 -17 -10 -17 1
-17 1 0 11 15 9 17 19 12 62 -6 51 3 115 25 173 9 23 13 25 20 14 8 -12 10
-11 10 6 0 18 -5 20 -57 18 -32 -1 -44 0 -28 3 29 4 31 7 27 38 -3 22 -10 35
-19 35 -15 0 -13 24 3 26 11 1 47 15 124 48 82 35 92 34 84 -11z m95 -127 c10
-12 8 -17 -8 -25 -11 -6 -27 -8 -35 -5 -12 5 -15 2 -10 -10 5 -12 2 -15 -10
-10 -22 8 -20 15 11 41 31 27 37 28 52 9z m451 -20 c25 -1 84 -15 132 -31 89
-28 152 -73 191 -137 22 -36 37 -36 34 1 -1 18 -7 27 -14 24 -7 -3 -13 1 -13
8 0 8 -16 28 -36 44 -20 17 -45 37 -55 46 -11 9 -37 19 -58 23 -22 3 -42 10
-45 15 -6 9 41 0 109 -21 74 -24 235 -131 235 -157 0 -5 4 -11 8 -13 14 -6 52
-79 47 -89 -4 -5 -14 -8 -23 -8 -15 1 -15 2 1 6 33 9 17 21 -28 20 -25 0 -50
-7 -56 -14 -7 -7 -20 -13 -30 -13 -11 0 -19 -6 -19 -13 0 -7 -8 -20 -17 -29
-47 -43 -78 -108 -55 -116 15 -5 17 -242 2 -242 -14 0 -13 -26 3 -51 10 -17
10 -23 0 -26 -8 -3 -13 -22 -13 -44 l0 -39 46 0 c45 0 46 -1 40 -26 -4 -15 -3
-23 2 -20 26 16 10 -146 -28 -284 -15 -54 -30 -74 -30 -40 0 14 -5 32 -10 40
-8 12 -10 12 -10 -5 0 -11 5 -38 10 -60 10 -41 -11 -165 -32 -192 -5 -7 -20
-43 -34 -80 -22 -62 -24 -65 -24 -31 0 20 6 39 13 42 10 5 10 7 0 12 -7 3 -13
10 -13 15 0 6 4 8 9 5 5 -4 7 3 4 14 -8 32 -16 13 -22 -52 -1 -5 -19 -8 -41
-8 l-40 0 0 -50 0 -50 -40 0 c-39 0 -40 -1 -40 -36 0 -44 -31 -73 -78 -74 -26
0 -32 -4 -30 -17 2 -13 -12 -25 -47 -41 -27 -14 -58 -28 -67 -33 -12 -6 -18
-5 -18 2 0 5 -20 -4 -45 -22 -28 -20 -44 -38 -40 -47 3 -7 5 -20 5 -28 0 -8
12 -20 28 -26 15 -7 58 -30 96 -52 l68 -40 -33 -27 c-27 -22 -35 -25 -37 -13
-3 12 -7 13 -18 3 -11 -9 -14 -8 -14 7 0 21 -47 47 -86 47 -17 -1 -29 8 -39
26 -13 26 -35 42 -86 60 -29 10 -49 -2 -48 -28 0 -10 4 -7 9 7 8 19 13 21 30
12 25 -14 26 -30 1 -30 -20 0 -19 -1 1 -40 16 -29 28 -40 45 -40 20 0 23 -5
23 -39 0 -22 -6 -42 -12 -45 -7 -3 3 -3 22 0 19 2 49 0 65 -4 l30 -9 -28 -8
c-16 -4 -51 -5 -79 -2 -28 4 -47 3 -44 -1 4 -4 47 -10 94 -13 l87 -6 -97 -1
c-100 -2 -140 4 -117 19 16 9 -49 23 -82 16 -15 -2 -7 -5 19 -6 56 -1 54 -21
-3 -21 -35 0 -45 4 -45 16 0 13 -3 14 -14 5 -15 -13 -31 1 -37 33 -6 28 -28
31 -38 5 -6 -18 -3 -27 13 -41 20 -17 15 -17 -134 -18 -85 -1 -186 -3 -225 -5
-47 -3 -63 -2 -50 4 15 7 5 10 -40 11 -186 6 -230 10 -234 21 -2 6 -11 18 -21
27 -10 8 -16 22 -12 31 4 10 -2 8 -17 -6 -13 -12 -20 -26 -16 -32 3 -6 0 -11
-7 -12 -7 -1 -2 -5 12 -9 23 -7 23 -8 -9 -9 -26 -1 -32 2 -27 15 3 8 2 12 -4
9 -6 -3 -10 -12 -10 -19 0 -10 -11 -11 -45 -6 -24 4 -42 3 -39 -2 9 -14 -104
-9 -171 8 -45 12 -66 22 -70 35 -4 11 -10 19 -14 19 -4 0 -13 11 -19 25 -11
24 -9 26 41 51 28 15 93 53 143 84 l91 58 17 -28 c9 -16 16 -35 16 -44 0 -9 7
-16 15 -16 15 0 11 23 -9 49 -6 8 -11 52 -10 100 1 156 58 267 217 423 91 91
175 151 259 185 54 21 68 23 151 17 51 -4 86 -9 78 -12 -11 -4 -11 -6 0 -13
11 -7 11 -9 1 -9 -7 0 -11 -4 -8 -9 3 -4 -6 -6 -21 -3 -18 3 -24 1 -19 -7 4
-6 14 -11 22 -11 8 0 14 -9 14 -20 0 -17 7 -20 40 -20 33 0 40 3 40 20 0 17 7
20 40 20 36 0 40 -2 40 -25 0 -22 4 -25 38 -25 21 0 47 -7 58 -15 10 -8 31
-15 47 -15 15 0 27 -5 27 -11 0 -6 11 -24 24 -39 17 -21 26 -26 35 -17 8 8 11
4 11 -16 0 -17 5 -27 15 -27 8 0 15 6 15 14 0 8 12 16 27 18 19 2 35 -6 59
-29 27 -28 39 -33 79 -33 l46 0 -2 53 c-2 28 -7 58 -13 65 -5 8 -9 32 -8 55 3
37 -1 44 -28 62 -18 12 -30 29 -30 43 0 19 -5 22 -40 22 -33 0 -40 3 -40 20 0
11 -5 20 -10 20 -6 0 -14 8 -17 18 -9 25 -43 52 -65 52 -13 0 -20 9 -24 30 -5
22 -12 30 -28 31 -20 0 -21 1 -1 9 11 5 38 9 60 9 22 1 67 9 100 19 60 18 95
18 95 1 0 -5 7 -9 15 -9 8 0 15 5 15 10 0 6 -7 10 -15 10 -23 0 -18 16 9 28
14 6 43 28 65 48 23 20 41 32 42 28 0 -5 6 13 14 41 18 70 9 82 -69 90 -48 5
-82 2 -142 -13 -143 -37 -224 -45 -359 -37 -102 6 -125 10 -121 21 4 9 -2 14
-17 15 -17 0 -14 3 13 14 34 13 34 14 8 14 -16 1 -28 5 -28 10 0 14 67 21 211
21 217 0 322 38 398 144 48 66 38 80 -60 84 -41 2 -116 -4 -166 -13 -72 -13
-130 -16 -260 -11 -93 3 -188 5 -213 6 -32 0 -41 3 -30 10 12 7 12 12 2 22 -6
6 -12 30 -12 53 0 34 5 43 28 57 23 14 36 15 65 7 24 -6 34 -14 31 -23 -3 -7
2 -16 10 -19 11 -4 13 -1 10 11 -4 12 1 10 15 -7 12 -13 21 -19 21 -15 0 5 9
-6 20 -23 11 -18 24 -33 30 -33 5 0 10 -8 11 -17 0 -15 2 -15 7 -3 4 8 19 16
35 18 33 4 35 -5 5 -18 -16 -6 -6 -8 36 -4 105 9 144 52 127 142 -5 23 -10 44
-12 45 -39 28 -65 38 -83 33 -17 -4 -33 4 -59 28 -37 34 -37 34 -22 70 8 19
15 46 15 59 0 20 5 24 33 25 60 3 85 7 81 14 -6 9 53 24 141 36 61 9 137 8
305 -2z m-790 -16 c-20 -13 -33 -13 -25 0 3 6 14 10 23 10 15 0 15 -2 2 -10z
m9 -143 c-1 -20 -2 -20 -9 3 -8 24 -8 24 -9 3 -1 -13 -7 -23 -16 -23 -8 0 -12
-6 -9 -13 3 -8 -11 -33 -31 -57 -47 -57 -57 -76 -54 -108 4 -37 -8 -54 -34
-47 -12 2 -16 2 -9 -1 15 -7 6 -24 -13 -24 -32 0 10 119 67 192 81 102 119
126 117 75z m-5 -67 c4 -25 3 -31 -4 -20 -5 8 -10 26 -10 39 0 32 6 24 14 -19z
m-18 -38 c1 -7 0 -8 -3 -2 -2 5 -9 8 -14 4 -5 -3 -9 0 -9 6 0 15 23 7 26 -8z
m-1 -32 c3 -5 2 -10 -4 -10 -5 0 -13 5 -16 10 -3 6 -2 10 4 10 5 0 13 -4 16
-10z m-618 -84 c-10 -8 -15 -20 -11 -29 3 -8 0 -18 -7 -23 -8 -4 -10 -3 -5 4
4 6 2 21 -5 33 -6 12 -7 19 -2 16 5 -3 15 -2 23 4 22 13 27 10 7 -5z m-65
-112 c-9 -16 -10 -14 -9 8 1 15 6 23 11 18 4 -4 4 -16 -2 -26z m-22 -34 c0 -3
-13 -20 -30 -38 -16 -18 -30 -29 -30 -24 0 5 9 17 19 26 13 12 18 27 16 49 -4
30 -3 31 10 13 8 -11 15 -22 15 -26z m-84 -85 c-8 -23 -25 -9 -19 16 4 13 9
17 16 10 5 -5 7 -17 3 -26z m604 25 c0 -5 -4 -10 -10 -10 -5 0 -10 5 -10 10 0
6 5 10 10 10 6 0 10 -4 10 -10z m2 -46 c-4 -23 -6 -24 -15 -9 -8 14 2 32 19
35 1 0 -1 -12 -4 -26z m-3 -61 c-1 -17 -2 -17 -6 0 -2 9 -9 17 -14 17 -5 0 -9
7 -9 16 0 14 2 14 15 0 8 -8 14 -23 14 -33z m234 20 c-7 -2 -19 -2 -25 0 -7 3
-2 5 12 5 14 0 19 -2 13 -5z m44 1 c-3 -3 -12 -4 -19 -1 -8 3 -5 6 6 6 11 1
17 -2 13 -5z m1120 -71 c-3 -10 -5 -2 -5 17 0 19 2 27 5 18 2 -10 2 -26 0 -35z
m23 -24 c0 -16 -4 -28 -9 -25 -8 5 -3 56 5 56 2 0 4 -14 4 -31z m-13 -111 c-2
-13 -4 -3 -4 22 0 25 2 35 4 23 2 -13 2 -33 0 -45z m-17 48 c0 -3 -4 -8 -10
-11 -5 -3 -10 -1 -10 4 0 6 5 11 10 11 6 0 10 -2 10 -4z m-1350 -121 c0 -11 6
-29 13 -40 15 -22 39 -108 35 -126 -4 -15 35 -27 82 -27 22 1 26 2 13 5 -46 9
-21 22 33 18 61 -4 86 -15 38 -15 -25 -1 -27 -2 -11 -11 10 -6 34 -9 53 -7 19
2 34 1 34 -4 0 -4 -52 -6 -116 -5 -139 2 -138 2 -184 144 -36 113 -36 117 -10
101 11 -7 20 -22 20 -33z m397 -41 c-3 -3 -12 -4 -19 -1 -8 3 -5 6 6 6 11 1
17 -2 13 -5z m273 -214 c0 -5 -2 -10 -4 -10 -3 0 -8 5 -11 10 -3 6 -1 10 4 10
6 0 11 -4 11 -10z m-303 -6 c-3 -3 -12 -4 -19 -1 -8 3 -5 6 6 6 11 1 17 -2 13
-5z m299 -30 c18 -14 18 -14 -6 -3 -31 14 -36 19 -24 19 6 0 19 -7 30 -16z
m78 -23 c4 -5 -3 -7 -14 -4 -23 6 -26 13 -6 13 8 0 17 -4 20 -9z m-89 -29 c-3
-3 -11 0 -18 7 -9 10 -8 11 6 5 10 -3 15 -9 12 -12z m75 8 c0 -5 -2 -10 -4
-10 -3 0 -8 5 -11 10 -3 6 -1 10 4 10 6 0 11 -4 11 -10z m35 -21 c11 -17 -1
-21 -15 -4 -8 9 -8 15 -2 15 6 0 14 -5 17 -11z m65 -74 c0 -12 -20 6 -31 28
l-11 22 21 -22 c11 -12 21 -25 21 -28z m415 -233 c-3 -3 -11 0 -18 7 -9 10 -8
11 6 5 10 -3 15 -9 12 -12z m15 -22 c0 -5 -5 -10 -11 -10 -5 0 -7 5 -4 10 3 6
8 10 11 10 2 0 4 -4 4 -10z m-22 -35 c-3 -3 -9 2 -12 12 -6 14 -5 15 5 6 7 -7
10 -15 7 -18z m-137 -21 c-5 -16 -10 -21 -10 -12 -1 18 10 51 15 45 2 -1 -1
-16 -5 -33z m412 10 c37 -8 102 -17 144 -21 l76 -8 14 -50 c8 -27 22 -66 32
-86 17 -35 17 -35 -5 -52 -25 -19 -72 -40 -90 -42 -6 0 -18 -6 -26 -12 -28
-24 -88 -43 -112 -37 -32 8 -136 134 -136 164 0 6 -4 10 -8 10 -5 0 -19 22
-32 50 -19 41 -21 54 -12 74 11 25 44 37 72 28 8 -2 46 -11 83 -18z m-307 -11
c-10 -10 -19 5 -10 18 6 11 8 11 12 0 2 -7 1 -15 -2 -18z m-56 10 c0 -3 -7
-11 -15 -20 -9 -9 -13 -23 -10 -34 4 -11 2 -19 -4 -19 -12 0 -15 38 -6 63 5
12 35 21 35 10z m20 -109 c0 -8 -5 -12 -10 -9 -6 4 -8 11 -5 16 9 14 15 11 15
-7z m-67 -17 c3 -8 -1 -14 -8 -14 -7 0 -11 6 -8 14 3 7 6 13 8 13 2 0 5 -6 8
-13z m-53 -58 c0 -6 -4 -7 -10 -4 -5 3 -10 11 -10 16 0 6 5 7 10 4 6 -3 10
-11 10 -16z m117 -21 c-3 -8 -6 -5 -6 6 -1 11 2 17 5 13 3 -3 4 -12 1 -19z
m-17 3 c0 -6 -4 -13 -10 -16 -5 -3 -10 1 -10 9 0 9 5 16 10 16 6 0 10 -4 10
-9z m-423 -27 c-3 -3 -12 -4 -19 -1 -8 3 -5 6 6 6 11 1 17 -2 13 -5z m97 -49
c11 -8 16 -15 10 -15 -5 0 -18 7 -28 15 -11 8 -16 15 -10 15 5 0 18 -7 28 -15z
m296 1 c0 -2 -7 -7 -16 -10 -8 -3 -12 -2 -9 4 6 10 25 14 25 6z m127 -2 c-3
-3 -12 -4 -19 -1 -8 3 -5 6 6 6 11 1 17 -2 13 -5z m-36 -41 c23 -27 23 -27 1
-8 -20 16 -25 17 -32 5 -11 -17 -13 -9 -4 14 8 20 6 21 35 -11z m49 17 c8 -5
11 -10 5 -10 -5 0 -17 5 -25 10 -8 5 -10 10 -5 10 6 0 17 -5 25 -10z m80 0
c-8 -5 -19 -10 -25 -10 -5 0 -3 5 5 10 8 5 20 10 25 10 6 0 3 -5 -5 -10z m155
0 c3 -6 -1 -7 -9 -4 -18 7 -21 14 -7 14 6 0 13 -4 16 -10z m-260 -68 c-5 -5
-45 22 -45 31 0 4 11 0 24 -10 13 -10 23 -19 21 -21z m32 22 c-3 -3 -12 -4
-19 -1 -8 3 -5 6 6 6 11 1 17 -2 13 -5z m-24 -51 c-7 -2 -19 -2 -25 0 -7 3 -2
5 12 5 14 0 19 -2 13 -5z m-106 -19 c-3 -3 -12 -4 -19 -1 -8 3 -5 6 6 6 11 1
17 -2 13 -5z m-330 -26 c-3 -8 -6 -5 -6 6 -1 11 2 17 5 13 3 -3 4 -12 1 -19z
m-17 -43 c0 -8 -4 -15 -10 -15 -5 0 -7 7 -4 15 4 8 8 15 10 15 2 0 4 -7 4 -15z
m1345 -14 c3 -5 0 -13 -5 -16 -16 -10 -62 4 -55 15 8 13 52 13 60 1z"/>
<path d="M1178 3043 c7 -3 16 -2 19 1 4 3 -2 6 -13 5 -11 0 -14 -3 -6 -6z"/>
<path d="M216 1885 c-9 -26 -7 -32 5 -12 6 10 9 21 6 23 -2 3 -7 -2 -11 -11z"/>
<path d="M590 1785 c0 -8 2 -15 4 -15 2 0 6 7 10 15 3 8 1 15 -4 15 -6 0 -10
-7 -10 -15z"/>
<path d="M561 1724 c0 -11 3 -14 6 -6 3 7 2 16 -1 19 -3 4 -6 -2 -5 -13z"/>
<path d="M532 1660 c-18 -29 -15 -38 4 -12 9 13 14 25 12 27 -2 2 -9 -5 -16
-15z"/>
<path d="M486 1657 c3 -10 9 -15 12 -12 3 3 0 11 -7 18 -10 9 -11 8 -5 -6z"/>
<path d="M432 1561 c4 -13 18 -16 19 -4 0 4 -5 9 -11 12 -7 2 -11 -2 -8 -8z"/>
<path d="M1698 2743 c7 -3 16 -2 19 1 4 3 -2 6 -13 5 -11 0 -14 -3 -6 -6z"/>
<path d="M1625 2730 l-20 -9 20 0 c11 0 27 4 35 9 13 9 13 10 0 9 -8 0 -24 -4
-35 -9z"/>
<path d="M1706 2483 c-6 -14 -5 -15 5 -6 7 7 10 15 7 18 -3 3 -9 -2 -12 -12z"/>
<path d="M1620 2390 c0 -13 18 -22 24 -11 3 5 -1 11 -9 15 -8 3 -15 1 -15 -4z"/>
<path d="M1998 2593 c7 -3 16 -2 19 1 4 3 -2 6 -13 5 -11 0 -14 -3 -6 -6z"/>
<path d="M2810 2400 c0 -5 5 -10 11 -10 5 0 7 5 4 10 -3 6 -8 10 -11 10 -2 0
-4 -4 -4 -10z"/>
<path d="M2831 2364 c0 -11 3 -14 6 -6 3 7 2 16 -1 19 -3 4 -6 -2 -5 -13z"/>
<path d="M1520 2270 c0 -5 5 -10 10 -10 6 0 10 5 10 10 0 6 -4 10 -10 10 -5 0
-10 -4 -10 -10z"/>
<path d="M1700 2169 c0 -5 5 -7 10 -4 6 3 10 8 10 11 0 2 -4 4 -10 4 -5 0 -10
-5 -10 -11z"/>
<path d="M1838 1923 c12 -2 30 -2 40 0 9 3 -1 5 -23 4 -22 0 -30 -2 -17 -4z"/>
<path d="M2360 1859 c0 -5 5 -7 10 -4 6 3 10 8 10 11 0 2 -4 4 -10 4 -5 0 -10
-5 -10 -11z"/>
<path d="M2352 1785 c0 -16 2 -22 5 -12 2 9 2 23 0 30 -3 6 -5 -1 -5 -18z"/>
<path d="M2290 1730 c-14 -11 -20 -20 -14 -20 6 0 19 9 29 20 23 25 17 25 -15
0z"/>
<path d="M2290 1696 c0 -2 7 -7 16 -10 8 -3 12 -2 9 4 -6 10 -25 14 -25 6z"/>
<path d="M2230 1675 c0 -8 2 -15 4 -15 2 0 6 7 10 15 3 8 1 15 -4 15 -6 0 -10
-7 -10 -15z"/>
<path d="M2722 1635 c0 -16 2 -22 5 -12 2 9 2 23 0 30 -3 6 -5 -1 -5 -18z"/>
<path d="M2125 1627 l40 -14 -30 -5 c-28 -5 -29 -5 -4 -7 15 0 32 6 39 14 10
12 10 15 -3 15 -8 0 -30 2 -48 5 -32 5 -32 4 6 -8z"/>
<path d="M2077 1619 c7 -7 15 -10 18 -7 3 3 -2 9 -12 12 -14 6 -15 5 -6 -5z"/>
<path d="M2198 1603 c7 -3 16 -2 19 1 4 3 -2 6 -13 5 -11 0 -14 -3 -6 -6z"/>
<path d="M2648 1496 c-3 -14 -1 -31 3 -38 6 -8 9 1 9 25 0 42 -6 48 -12 13z"/>
<path d="M2680 1488 c0 -36 4 -35 14 5 4 16 2 27 -4 27 -5 0 -10 -14 -10 -32z"/>
<path d="M2641 1350 c0 -8 4 -24 9 -35 5 -13 9 -14 9 -5 0 8 -4 24 -9 35 -5
13 -9 14 -9 5z"/>
<path d="M2403 1240 c0 -25 2 -35 4 -22 2 12 2 32 0 45 -2 12 -4 2 -4 -23z"/>
<path d="M2580 1191 c0 -5 7 -14 15 -21 16 -14 18 -10 9 14 -6 17 -24 22 -24
7z"/>
<path d="M856 545 c4 -8 10 -15 15 -15 5 0 9 7 9 15 0 8 -7 15 -15 15 -9 0
-12 -6 -9 -15z"/>
<path d="M1005 549 c-11 -17 1 -21 15 -4 8 9 8 15 2 15 -6 0 -14 -5 -17 -11z"/>
<path d="M1090 551 c0 -5 5 -13 10 -16 6 -3 10 -2 10 4 0 5 -4 13 -10 16 -5 3
-10 2 -10 -4z"/>
<path d="M1055 530 c-3 -5 -1 -10 4 -10 6 0 11 5 11 10 0 6 -2 10 -4 10 -3 0
-8 -4 -11 -10z"/>
<path d="M1791 520 c0 -8 4 -24 9 -35 l9 -20 0 20 c0 11 -4 27 -9 35 -9 13
-10 13 -9 0z"/>
<path d="M1832 500 c0 -14 2 -19 5 -12 2 6 2 18 0 25 -3 6 -5 1 -5 -13z"/>
<path d="M1706 483 c-6 -14 -5 -15 5 -6 7 7 10 15 7 18 -3 3 -9 -2 -12 -12z"/>
<path d="M1185 470 c-13 -6 -15 -9 -5 -9 8 0 22 4 30 9 18 12 2 12 -25 0z"/>
<path d="M778 463 c7 -3 16 -2 19 1 4 3 -2 6 -13 5 -11 0 -14 -3 -6 -6z"/>
<path d="M1298 463 c12 -2 30 -2 40 0 9 3 -1 5 -23 4 -22 0 -30 -2 -17 -4z"/>
<path d="M2048 463 c6 -2 18 -2 25 0 6 3 1 5 -13 5 -14 0 -19 -2 -12 -5z"/>
<path d="M1448 453 c7 -3 16 -2 19 1 4 3 -2 6 -13 5 -11 0 -14 -3 -6 -6z"/>
<path d="M1408 2233 c7 -3 16 -2 19 1 4 3 -2 6 -13 5 -11 0 -14 -3 -6 -6z"/>
<path d="M278 393 c6 -2 18 -2 25 0 6 3 1 5 -13 5 -14 0 -19 -2 -12 -5z"/>
</g>
</svg>
